<mxfile host="65bd71144e">
    <diagram id="l_3EztwkF13Zctmzr-sn" name="Page-1">
        <mxGraphModel dx="1135" dy="421" grid="1" gridSize="10" guides="1" tooltips="1" connect="1" arrows="1" fold="1" page="1" pageScale="1" pageWidth="827" pageHeight="1169" math="0" shadow="0">
            <root>
                <mxCell id="0"/>
                <mxCell id="1" parent="0"/>
                <mxCell id="18" value="" style="edgeStyle=none;html=1;" edge="1" parent="1" source="2" target="17">
                    <mxGeometry relative="1" as="geometry"/>
                </mxCell>
                <mxCell id="2" value="Message-Receiver&lt;br&gt;[C#]" style="aspect=fixed;html=1;points=[];align=center;image;fontSize=12;image=img/lib/azure2/containers/Container_Instances.svg;" parent="1" vertex="1">
                    <mxGeometry x="560" y="280" width="64" height="69" as="geometry"/>
                </mxCell>
                <mxCell id="8" value="Publish Event" style="edgeStyle=none;html=1;" parent="1" source="4" target="7" edge="1">
                    <mxGeometry relative="1" as="geometry"/>
                </mxCell>
                <mxCell id="14" value="Invoke/ Receive (Service-to-Service)" style="edgeStyle=none;html=1;exitX=0.467;exitY=0;exitDx=0;exitDy=0;exitPerimeter=0;" parent="1" source="4" edge="1">
                    <mxGeometry relative="1" as="geometry">
                        <mxPoint x="590" y="280" as="targetPoint"/>
                        <Array as="points">
                            <mxPoint x="340" y="220"/>
                        </Array>
                    </mxGeometry>
                </mxCell>
                <mxCell id="4" value="Message-Creator&lt;br&gt;[js/Node.js]" style="aspect=fixed;html=1;points=[];align=center;image;fontSize=12;image=img/lib/azure2/containers/Container_Instances.svg;" parent="1" vertex="1">
                    <mxGeometry x="40" y="279.81" width="60" height="64.69" as="geometry"/>
                </mxCell>
                <mxCell id="9" value="Receive Event" style="edgeStyle=none;html=1;" parent="1" source="7" target="2" edge="1">
                    <mxGeometry relative="1" as="geometry"/>
                </mxCell>
                <mxCell id="7" value="Azure Event Hub&lt;br&gt;Topic" style="aspect=fixed;html=1;points=[];align=center;image;fontSize=12;image=img/lib/azure2/integration/Event_Grid_Topics.svg;" parent="1" vertex="1">
                    <mxGeometry x="300" y="284.5" width="67" height="60" as="geometry"/>
                </mxCell>
                <mxCell id="17" value="Message-Sink&lt;br&gt;[C#]" style="aspect=fixed;html=1;points=[];align=center;image;fontSize=12;image=img/lib/azure2/containers/Container_Instances.svg;" vertex="1" parent="1">
                    <mxGeometry x="740" y="280" width="64" height="69" as="geometry"/>
                </mxCell>
            </root>
        </mxGraphModel>
    </diagram>
</mxfile>